<svg width="109" height="17" viewBox="0 0 109 17" fill="none" xmlns="http://www.w3.org/2000/svg">
<g clip-path="url(#clip0_160_31)">
<path fill-rule="evenodd" clip-rule="evenodd" d="M94.5398 3.30966V0.18042C99.214 0.18042 104.326 0.18042 109 0.18042V3.30966H103.355V16.7848H100.185V3.30966H94.5398Z" fill="#075BF7"/>
<path fill-rule="evenodd" clip-rule="evenodd" d="M42.4729 0.18042H51.7895C54.5559 0.18042 56.7987 2.39416 56.7987 5.12503C56.7987 6.21435 56.4414 7.22115 55.8367 8.0383C56.9406 8.94521 57.6434 10.3117 57.6434 11.8402C57.6434 14.5709 55.4007 16.7847 52.6342 16.7847H42.4729C42.4729 11.2499 42.4729 5.71519 42.4729 0.18042ZM51.7895 3.35454H45.6884V6.89556H51.7895C52.78 6.89556 53.5831 6.10285 53.5831 5.12503C53.5831 4.1472 52.78 3.35454 51.7895 3.35454ZM52.6342 10.0696H45.6884V13.6107H52.6342C53.6248 13.6107 54.4278 12.818 54.4278 11.8402C54.4278 10.8624 53.6248 10.0696 52.6342 10.0696Z" fill="#075BF7"/>
<path fill-rule="evenodd" clip-rule="evenodd" d="M40.1251 16.7847H26.6689C26.6689 11.25 26.6689 5.71513 26.6689 0.18042H40.1251V3.33623H29.8662L29.8816 6.89583H38.9791L38.984 10.0696H29.8865L29.8662 13.6288H40.1251V16.7847Z" fill="#075BF7"/>
<path fill-rule="evenodd" clip-rule="evenodd" d="M83.5417 3.35447C82.551 3.35447 81.748 4.14713 81.748 5.12502C81.748 6.10291 82.551 6.89564 83.5417 6.89564L88.6936 6.89543C91.4601 6.89543 93.7029 9.10917 93.7029 11.84C93.7029 14.5708 91.4601 16.7846 88.6936 16.7846H78.5325V13.6106H88.6936C89.6842 13.6106 90.4873 12.818 90.4873 11.8401C90.4873 10.8624 89.6842 10.0695 88.6936 10.0695L83.5417 10.0697C80.7751 10.0697 78.5325 7.85588 78.5325 5.12502C78.5325 2.39416 80.7751 0.18042 83.5417 0.18042H92.5273V3.35447H83.5417Z" fill="#075BF7"/>
<path fill-rule="evenodd" clip-rule="evenodd" d="M67.8988 0C63.1528 0 59.3054 3.79778 59.3054 8.48254C59.3054 13.1674 63.1528 16.965 67.8988 16.965C70.8904 16.9647 73.8166 15.6629 75.567 13.5872L73.2393 11.3605C71.714 12.897 70.092 13.6328 67.8988 13.633C65.5777 13.633 63.6108 12.1368 62.9334 10.0683C67.4028 10.0683 71.8721 10.0683 76.3416 10.0683C76.44 9.55456 76.4921 9.02455 76.4921 8.48254C76.4921 3.79778 72.6447 0 67.8988 0ZM62.9343 6.89421C63.6127 4.82699 65.5787 3.33204 67.8988 3.33204C70.2189 3.33204 72.185 4.82699 72.8633 6.89421H62.9343Z" fill="#075BF7"/>
<path fill-rule="evenodd" clip-rule="evenodd" d="M6.12604 16.965C3.97827 16.965 2.19848 15.4101 1.8789 13.3785L0 0.181809H3.52406L5.3267 12.8427C5.38549 13.2264 5.72104 13.5204 6.12604 13.5204C6.53104 13.5204 6.86652 13.2264 6.92538 12.8427L8.27408 3.38465C8.56075 1.46971 10.2325 0 12.252 0C14.2716 0 15.9433 1.46971 16.23 3.38465L17.5788 12.8427C17.6376 13.2264 17.973 13.5204 18.3781 13.5204C18.7831 13.5204 19.1186 13.2264 19.1774 12.8427L20.98 0.181809H24.5041L22.6252 13.3785C22.3057 15.4101 20.5258 16.965 18.3781 16.965C16.2303 16.965 14.4505 15.4101 14.131 13.3785L12.7776 3.87747C12.7326 3.63133 12.5144 3.44476 12.252 3.44476C11.9898 3.44476 11.7715 3.63133 11.7264 3.87747L10.3731 13.3785C10.0536 15.4101 8.27381 16.965 6.12604 16.965Z" fill="#075BF7"/>
</g>
<defs>
<clipPath id="clip0_160_31">
<rect width="109" height="17" fill="white"/>
</clipPath>
</defs>
</svg>
