<svg width="29" height="24" viewBox="0 0 29 24" fill="none" xmlns="http://www.w3.org/2000/svg">
<path d="M6.40002 6.39999H11.8" stroke="#AFAFAF" stroke-width="2" stroke-linecap="round" stroke-linejoin="round"/>
<path d="M26.4246 7.75H22.9119C20.5022 7.75 18.55 9.56305 18.55 11.8C18.55 14.037 20.5035 15.85 22.9105 15.85H26.4246C26.538 15.85 26.5933 15.85 26.6406 15.8473C27.3696 15.8028 27.9501 15.2641 27.9973 14.5877C28 14.5445 28 14.4919 28 14.3879V9.21205C28 9.1081 28 9.05545 27.9973 9.01225C27.9487 8.3359 27.3696 7.79725 26.6406 7.7527C26.5947 7.75 26.538 7.75 26.4246 7.75Z" stroke="#AFAFAF" stroke-width="2"/>
<path d="M26.6027 7.75C26.4974 5.2228 26.1599 3.673 25.0678 2.5822C23.4869 1 20.9408 1 15.85 1H11.8C6.70915 1 4.16305 1 2.5822 2.5822C1.00135 4.1644 1 6.70915 1 11.8C1 16.8909 1 19.4369 2.5822 21.0178C4.1644 22.5986 6.70915 22.6 11.8 22.6H15.85C20.9408 22.6 23.4869 22.6 25.0678 21.0178C26.1599 19.927 26.4988 18.3772 26.6027 15.85" stroke="#AFAFAF" stroke-width="2"/>
<path d="M22.5879 11.8H22.602" stroke="#AFAFAF" stroke-width="2" stroke-linecap="round" stroke-linejoin="round"/>
</svg>
