<svg width="18" height="21" viewBox="0 0 18 21" fill="none" xmlns="http://www.w3.org/2000/svg">
<path d="M13.5 4C13.5 3.20435 13.1839 2.44129 12.6213 1.87868C12.0587 1.31607 11.2956 1 10.5 1H4C3.20435 1 2.44129 1.31607 1.87868 1.87868C1.31607 2.44129 1 3.20435 1 4V13.5C1 14.2956 1.31607 15.0587 1.87868 15.6213C2.44129 16.1839 3.20435 16.5 4 16.5H10.5C11.2956 16.5 12.0587 16.1839 12.6213 15.6213C13.1839 15.0587 13.5 14.2956 13.5 13.5V4Z" stroke="#D2D2D2" stroke-width="2" stroke-linecap="round" stroke-linejoin="round"/>
<path d="M16.5 5V13.5C16.5 15.0913 15.8679 16.6174 14.7426 17.7426C13.6174 18.8679 12.0913 19.5 10.5 19.5H5" stroke="#D2D2D2" stroke-width="2" stroke-linecap="round" stroke-linejoin="round"/>
</svg>
