<svg width="15" height="15" viewBox="0 0 15 15" fill="none" xmlns="http://www.w3.org/2000/svg">
<path d="M12.5858 0H5.83582C5.43799 0 5.05646 0.158035 4.77516 0.43934C4.49385 0.720644 4.33582 1.10218 4.33582 1.5V2.25C4.33582 2.44891 4.41483 2.63968 4.55548 2.78033C4.69614 2.92098 4.8869 3 5.08582 3C5.28473 3 5.47549 2.92098 5.61615 2.78033C5.7568 2.63968 5.83582 2.44891 5.83582 2.25V1.5H12.5858V13.5H5.83582V12.75C5.83582 12.5511 5.7568 12.3603 5.61615 12.2197C5.47549 12.079 5.28473 12 5.08582 12C4.8869 12 4.69614 12.079 4.55548 12.2197C4.41483 12.3603 4.33582 12.5511 4.33582 12.75V13.5C4.33582 13.8978 4.49385 14.2794 4.77516 14.5607C5.05646 14.842 5.43799 15 5.83582 15H12.5858C12.9836 15 13.3652 14.842 13.6465 14.5607C13.9278 14.2794 14.0858 13.8978 14.0858 13.5V1.5C14.0858 1.10218 13.9278 0.720644 13.6465 0.43934C13.3652 0.158035 12.9836 0 12.5858 0Z" fill="#9C9C9C"/>
<path d="M4.48956 10.7213C4.19706 11.0138 3.72456 11.0138 3.43206 10.7213L0.741065 8.03025C0.600462 7.88961 0.521475 7.69888 0.521475 7.5C0.521475 7.30113 0.600462 7.1104 0.741065 6.96975L3.43206 4.27875C3.57463 4.1499 3.76126 4.08075 3.95337 4.0856C4.14547 4.09045 4.32838 4.16892 4.46426 4.30481C4.60014 4.44069 4.67862 4.62359 4.68347 4.8157C4.68832 5.00781 4.61917 5.19444 4.49031 5.337L3.08331 6.75H9.58582C9.78473 6.75 9.97549 6.82902 10.1161 6.96967C10.2568 7.11032 10.3358 7.30109 10.3358 7.5C10.3358 7.69891 10.2568 7.88968 10.1161 8.03033C9.97549 8.17098 9.78473 8.25 9.58582 8.25H3.08331L4.49031 9.663C4.63013 9.80365 4.70855 9.99396 4.70841 10.1923C4.70827 10.3906 4.62958 10.5808 4.48956 10.7213Z" fill="#9C9C9C"/>
</svg>
