<svg width="40" height="40" viewBox="0 0 40 40" fill="none" xmlns="http://www.w3.org/2000/svg">
<path fill-rule="evenodd" clip-rule="evenodd" d="M39.9966 11.7694H18.6047C18.6047 7.88835 18.6047 4.00725 18.6047 0.126221H39.9966V2.33915H20.8177L20.8285 4.8352H39.9966L39.9999 7.06068H20.8318L20.8177 9.55643H39.9966V11.7694Z" fill="#075BF7"/>
<path fill-rule="evenodd" clip-rule="evenodd" d="M4.24024 11.8961C2.75362 11.8961 1.52169 10.8057 1.30053 9.38108L0 0.127468H2.43924L3.68697 9.00543C3.72768 9.27445 3.95989 9.48059 4.24024 9.48059C4.52059 9.48059 4.75281 9.27445 4.79351 9.00543L5.72705 2.37332C5.92546 1.03056 7.08261 0 8.48045 0C9.87832 0 11.0355 1.03056 11.2339 2.37332L12.1675 9.00543C12.2082 9.27445 12.4404 9.48059 12.7207 9.48059C13.0011 9.48059 13.2333 9.27445 13.274 9.00543L14.5217 0.127468H16.961L15.6604 9.38108C15.4393 10.8057 14.2073 11.8961 12.7207 11.8961C11.2341 11.8961 10.0022 10.8057 9.78105 9.38108L8.84434 2.71893C8.81314 2.54633 8.66203 2.41545 8.48045 2.41545C8.29886 2.41545 8.14784 2.54633 8.11664 2.71893L7.17996 9.38108C6.95879 10.8057 5.72687 11.8961 4.24024 11.8961Z" fill="#075BF7"/>
<path fill-rule="evenodd" clip-rule="evenodd" d="M0 14.2327H22.7601C24.6749 14.2327 26.2273 15.7849 26.2273 17.6998C26.2273 18.4637 25.9801 19.1697 25.5615 19.7427C26.3256 20.3786 26.812 21.3368 26.812 22.4086C26.812 24.3234 25.2597 25.8757 23.3448 25.8757H0C0 21.9947 0 18.1137 0 14.2327ZM22.7601 16.4584H2.2257V18.9414H22.7601C23.4458 18.9414 24.0016 18.3855 24.0016 17.6998C24.0016 17.0142 23.4458 16.4584 22.7601 16.4584ZM23.3448 21.167H2.2257V23.6501H23.3448C24.0304 23.6501 24.5863 23.0942 24.5863 22.4086C24.5863 21.7229 24.0304 21.167 23.3448 21.167Z" fill="#075BF7"/>
<path fill-rule="evenodd" clip-rule="evenodd" d="M33.992 14.1064C30.707 14.1064 28.0439 16.7694 28.0439 20.0544C28.0439 23.3395 30.707 26.0025 33.992 26.0025C36.0627 26.0023 38.0882 25.0893 39.2997 23.6339L37.6885 22.0726C36.6328 23.1499 35.51 23.6659 33.992 23.666C32.3854 23.666 31.0241 22.6168 30.5551 21.1664C33.6486 21.1664 36.7422 21.1664 39.8358 21.1664C39.9039 20.8061 39.94 20.4345 39.94 20.0544C39.94 16.7694 37.277 14.1064 33.992 14.1064ZM30.5557 18.9407C31.0252 17.4911 32.386 16.4429 33.992 16.4429C35.5979 16.4429 36.9587 17.4911 37.4282 18.9407H30.5557Z" fill="#075BF7"/>
<path fill-rule="evenodd" clip-rule="evenodd" d="M18.6047 30.5299V28.3357C21.84 28.3357 36.7612 28.3357 39.9966 28.3357V30.5299L30.3842 30.5477V39.9965H28.19V30.5477L18.6047 30.5299Z" fill="#075BF7"/>
<path fill-rule="evenodd" clip-rule="evenodd" d="M3.46726 30.5614C2.78154 30.5614 2.2257 31.1172 2.2257 31.8029C2.2257 32.4886 2.78154 33.0445 3.46726 33.0445L14.4129 33.0443C16.3277 33.0443 17.8801 34.5967 17.8801 36.5115C17.8801 38.4264 16.3277 39.9788 14.4129 39.9788H0V37.753H14.4129C15.0985 37.753 15.6544 37.1973 15.6544 36.5116C15.6544 35.8259 15.0985 35.2701 14.4129 35.2701L3.46726 35.2702C1.55237 35.2702 0 33.7179 0 31.8029C0 29.888 1.55237 28.3357 3.46726 28.3357H17.0664V30.5614H3.46726Z" fill="#075BF7"/>
</svg>
