<svg width="13" height="7" viewBox="0 0 13 7" fill="none" xmlns="http://www.w3.org/2000/svg">
<path fill-rule="evenodd" clip-rule="evenodd" d="M7.1483 6.73276C6.97928 6.90387 6.75007 7 6.51108 7C6.27208 7 6.04287 6.90387 5.87385 6.73276L0.775159 1.56929C0.689075 1.48509 0.620411 1.38438 0.573174 1.27302C0.525938 1.16166 0.501074 1.04188 0.500034 0.920688C0.498994 0.799493 0.521799 0.679302 0.567117 0.567127C0.612436 0.454953 0.679361 0.353041 0.763987 0.26734C0.848613 0.181639 0.949245 0.113864 1.06001 0.0679696C1.17078 0.0220754 1.28946 -0.00101869 1.40914 3.4463e-05C1.52881 0.00108762 1.64708 0.0262672 1.75705 0.0741039C1.86701 0.121941 1.96646 0.191476 2.04961 0.278654L6.51108 4.7968L10.9725 0.278654C11.1425 0.112388 11.3702 0.0203869 11.6065 0.0224665C11.8428 0.0245462 12.0689 0.12054 12.236 0.289772C12.4031 0.459005 12.4979 0.687936 12.5 0.927258C12.502 1.16658 12.4112 1.39714 12.247 1.56929L7.1483 6.73276Z" fill="#4047CA"/>
</svg>
