<svg width="15" height="11" viewBox="0 0 15 11" fill="none" xmlns="http://www.w3.org/2000/svg">
<path d="M12.6684 0.350702C12.9276 0.123273 13.2725 -0.00245916 13.6304 3.64524e-05C13.9883 0.00253207 14.3311 0.133061 14.5865 0.364078C14.842 0.595096 14.9901 0.908535 14.9995 1.23825C15.009 1.56797 14.8791 1.88819 14.6372 2.13132L7.29535 10.5935C7.16911 10.7188 7.01674 10.8194 6.84735 10.8892C6.67797 10.959 6.49505 10.9966 6.30954 10.9998C6.12402 11.0029 5.93972 10.9716 5.76764 10.9076C5.59557 10.8436 5.43927 10.7483 5.30807 10.6274L0.439241 6.14026C0.303652 6.02382 0.194899 5.8834 0.119471 5.72739C0.0440431 5.57137 0.00348419 5.40296 0.000214773 5.23218C-0.00305464 5.06141 0.0310325 4.89177 0.100442 4.7334C0.169851 4.57503 0.273161 4.43117 0.404209 4.31039C0.535257 4.18962 0.691357 4.09441 0.863198 4.03044C1.03504 3.96647 1.2191 3.93506 1.4044 3.93807C1.5897 3.94108 1.77245 3.97846 1.94173 4.04798C2.11102 4.11749 2.26337 4.21772 2.38972 4.34268L6.24283 7.89205L12.6334 0.388011L12.6684 0.350702Z" fill="#1B632B"/>
</svg>
