<svg width="71" height="74" viewBox="0 0 71 74" fill="none" xmlns="http://www.w3.org/2000/svg">
<path d="M59.11 0H11C8.08262 0 5.28473 1.15893 3.22183 3.22183C1.15893 5.28473 0 8.08262 0 11L0 54.2C0.000470901 56.9921 1.06848 59.6783 2.98526 61.7085C4.90205 63.7387 7.52254 64.9592 10.31 65.12V70.3C10.31 71.2796 10.6984 72.2192 11.3902 72.9128C12.0819 73.6064 13.0204 73.9974 14 74C14.5935 74.0212 15.1814 73.8794 15.7 73.59C16.38 73.16 23.28 68.11 26.98 65.39C27.1935 65.2307 27.4536 65.1464 27.72 65.15H59.11C62.0274 65.15 64.8253 63.9911 66.8882 61.9282C68.9511 59.8653 70.11 57.0674 70.11 54.15V11C70.11 8.08262 68.9511 5.28473 66.8882 3.22183C64.8253 1.15893 62.0274 0 59.11 0ZM65.87 53.35C65.87 55.4452 65.0377 57.4546 63.5561 58.9361C62.0746 60.4177 60.0652 61.25 57.97 61.25H27.4C25.31 61.25 22.57 63.38 20.28 65.15L15.22 69C15.0768 69.1098 14.9083 69.182 14.73 69.21C14.49 69.21 14.27 69.06 14.27 68.56V63.43C14.27 62.8536 14.0417 62.3006 13.635 61.892C13.2284 61.4835 12.6764 61.2526 12.1 61.25C10.0039 61.25 7.99344 60.418 6.51032 58.9368C5.02719 57.4555 4.19265 55.4461 4.19 53.35V11.8C4.19265 9.70387 5.02719 7.6945 6.51032 6.21325C7.99344 4.732 10.0039 3.9 12.1 3.9H58C59.0374 3.9 60.0647 4.10434 61.0232 4.50135C61.9817 4.89836 62.8526 5.48027 63.5861 6.21386C64.3197 6.94744 64.9016 7.81833 65.2986 8.7768C65.6957 9.73527 65.9 10.7626 65.9 11.8L65.87 53.35Z" fill="#53BFA6"/>
<path d="M45.9997 40.5899L40.4597 35.0999C40.8291 34.2978 41.0136 33.4229 40.9997 32.5399C41.0073 31.664 40.823 30.797 40.4597 29.9999L45.9997 24.4899C47.4249 25.2272 49.0669 25.4302 50.6288 25.0622C52.1907 24.6941 53.5693 23.7794 54.5153 22.4833C55.4614 21.1872 55.9124 19.5954 55.7869 17.9957C55.6614 16.396 54.9676 14.894 53.831 13.7613C52.6943 12.6286 51.1899 11.9401 49.5898 11.8201C47.9896 11.7002 46.3994 12.1568 45.1066 13.1074C43.8138 14.0579 42.9039 15.4397 42.5413 17.0029C42.1787 18.566 42.3875 20.2073 43.1297 21.6299L37.6397 27.1199C36.8165 26.7249 35.9128 26.5264 34.9997 26.5399C34.1141 26.5419 33.2398 26.74 32.4397 27.1199L26.9997 21.6299C27.7424 20.2041 27.9501 18.5596 27.5853 16.9939C27.2205 15.4282 26.3073 14.0448 25.011 13.0941C23.7146 12.1434 22.1208 11.6881 20.5178 11.8106C18.9149 11.9332 17.4088 12.6254 16.272 13.7622C15.1353 14.899 14.443 16.4051 14.3204 18.008C14.1979 19.6109 14.6532 21.2048 15.6039 22.5011C16.5547 23.7975 17.938 24.7107 19.5037 25.0755C21.0694 25.4403 22.7139 25.2325 24.1397 24.4899L29.6097 29.9999C29.2223 30.7915 29.0141 31.6587 28.9997 32.5399C28.9984 33.426 29.1966 34.301 29.5797 35.0999L24.0897 40.5899C22.6541 39.859 21.0043 39.6657 19.4386 40.0449C17.8728 40.4241 16.4943 41.3508 15.5521 42.6576C14.6099 43.9643 14.1662 45.565 14.301 47.1703C14.4359 48.7757 15.1405 50.2799 16.2875 51.4111C17.4345 52.5424 18.9483 53.2261 20.5554 53.3387C22.1625 53.4514 23.7568 52.9855 25.0504 52.0253C26.3441 51.0651 27.2516 49.674 27.6091 48.1031C27.9666 46.5322 27.7504 44.8853 26.9997 43.4599L32.4697 37.9999C33.2698 38.3798 34.1441 38.5779 35.0297 38.5799C35.9158 38.5813 36.7908 38.383 37.5897 37.9999L43.0797 43.4899C42.3396 44.9164 42.1336 46.5605 42.4988 48.1255C42.864 49.6905 43.7764 51.0736 45.0715 52.0252C46.3665 52.9768 47.959 53.4344 49.5616 53.3153C51.1643 53.1963 52.6717 52.5086 53.812 51.3761C54.9522 50.2436 55.6503 48.741 55.7804 47.1392C55.9104 45.5374 55.4638 43.9418 54.5211 42.6403C53.5784 41.3387 52.2017 40.4168 50.6392 40.0409C49.0767 39.6649 47.4313 39.8596 45.9997 40.5899Z" fill="#53BFA6"/>
</svg>
