<svg width="15" height="13" viewBox="0 0 15 13" fill="none" xmlns="http://www.w3.org/2000/svg">
<path d="M4.16666 13C3.93055 13 3.73278 12.922 3.57333 12.766C3.41389 12.61 3.33389 12.4172 3.33333 12.1875V0.8125C3.33333 0.582292 3.41333 0.389458 3.57333 0.234C3.73333 0.0785417 3.93111 0.000541667 4.16666 0H10.8333C11.0694 0 11.2675 0.0780001 11.4275 0.234C11.5875 0.39 11.6672 0.582833 11.6667 0.8125V12.1875C11.6667 12.4177 11.5867 12.6108 11.4267 12.7668C11.2667 12.9228 11.0689 13.0005 10.8333 13H4.16666ZM0 10.5625V2.41719C0 2.18698 0.08 1.9974 0.24 1.84844C0.4 1.69948 0.597777 1.625 0.833333 1.625C1.06889 1.625 1.26694 1.703 1.4275 1.859C1.58805 2.015 1.66778 2.20783 1.66667 2.4375V10.5828C1.66667 10.813 1.58667 11.0026 1.42667 11.1516C1.26667 11.3005 1.06889 11.375 0.833333 11.375C0.597777 11.375 0.4 11.297 0.24 11.141C0.08 10.985 0 10.7922 0 10.5625ZM13.3333 10.5625V2.41719C13.3333 2.18698 13.4133 1.9974 13.5733 1.84844C13.7333 1.69948 13.9311 1.625 14.1667 1.625C14.4022 1.625 14.6003 1.703 14.7608 1.859C14.9214 2.015 15.0011 2.20783 15 2.4375V10.5828C15 10.813 14.92 11.0026 14.76 11.1516C14.6 11.3005 14.4022 11.375 14.1667 11.375C13.9311 11.375 13.7333 11.297 13.5733 11.141C13.4133 10.985 13.3333 10.7922 13.3333 10.5625Z" fill="#7273D3"/>
</svg>
