<svg width="82" height="37" viewBox="0 0 82 37" fill="none" xmlns="http://www.w3.org/2000/svg">
<path d="M0.84375 0H3.84375V4.69C3.82447 5.1573 3.92426 5.62184 4.13375 6.04C4.33946 6.38482 4.66253 6.64397 5.04375 6.77C5.55399 6.93302 6.08838 7.00743 6.62375 6.99C6.85375 6.99 7.12375 6.99 7.42375 6.99C7.72375 6.99 8.05375 6.99 8.42375 6.91C8.79375 6.83 9.06375 6.84 9.35375 6.79C9.60128 6.75805 9.84554 6.70452 10.0837 6.63V9.06C9.84035 9.13273 9.59336 9.19281 9.34375 9.24C9.04375 9.24 8.73375 9.33 8.41375 9.36C8.09375 9.39 7.76375 9.42 7.41375 9.44H6.61375C5.57509 9.4609 4.54138 9.29144 3.56375 8.94C2.75034 8.64712 2.05033 8.10461 1.56375 7.39C1.0606 6.57834 0.813217 5.6341 0.853752 4.68L0.84375 0ZM9.50375 0H12.5038V14.55H9.50375V0ZM18.0537 14.55H14.7637L19.7637 0H23.7637L28.7637 14.55H25.4638L21.8238 3.33H21.7038L18.0537 14.55ZM17.8538 8.83H25.6338V11.23H17.8538V8.83ZM28.1838 2.55V0H40.1237V2.55H35.6738V14.55H32.6738V2.55H28.1838Z" fill="#616263"/>
<path d="M13.0929 27.1004H9.99292C9.94011 26.7228 9.82166 26.3573 9.64292 26.0204C9.46708 25.7115 9.23668 25.4371 8.96292 25.2104C8.67965 24.9844 8.35778 24.8117 8.01291 24.7004C7.6372 24.5866 7.24522 24.5359 6.85292 24.5504C6.14416 24.5239 5.44486 24.7197 4.85292 25.1104C4.26983 25.511 3.81767 26.0744 3.55292 26.7304C3.22322 27.546 3.06658 28.4211 3.09292 29.3004C3.06509 30.1928 3.22169 31.0813 3.55292 31.9104C3.80508 32.5586 4.25217 33.1125 4.8325 33.4958C5.41282 33.8791 6.0978 34.0729 6.79292 34.0504C7.19958 34.0495 7.6039 33.9889 7.99292 33.8704C8.33216 33.7672 8.65042 33.6047 8.93292 33.3904C9.20782 33.1808 9.43886 32.9191 9.61292 32.6204C9.80655 32.2912 9.93552 31.928 9.99292 31.5504H13.0929C13.0208 32.2503 12.8137 32.9295 12.4829 33.5504C12.1635 34.1788 11.7294 34.7418 11.2029 35.2104C10.6407 35.7108 9.98938 36.1009 9.28292 36.3604C8.47894 36.6526 7.62822 36.795 6.77292 36.7804C5.55543 36.8007 4.35444 36.497 3.29292 35.9004C2.26501 35.2949 1.42948 34.4109 0.882918 33.3504C0.268707 32.1085 -0.0333508 30.7355 0.00292045 29.3504C-0.0298449 27.9646 0.275636 26.5916 0.89292 25.3504C1.44416 24.2894 2.2873 23.4081 3.32292 22.8104C4.37453 22.2163 5.56523 21.9126 6.77292 21.9304C7.57001 21.9194 8.36363 22.0376 9.12292 22.2804C9.81877 22.4933 10.4696 22.8323 11.0429 23.2804C11.6063 23.7323 12.0723 24.2936 12.4129 24.9304C12.7691 25.6066 12.9995 26.3419 13.0929 27.1004ZM15.2929 36.5504V22.0004H25.0929V24.5504H18.3729V28.0204H24.5929V30.5504H18.3729V34.0204H25.1229V36.5504H15.2929ZM27.5429 36.5504V22.0004H33.2829C34.2616 21.9753 35.231 22.1953 36.1029 22.6404C36.8551 23.0284 37.4722 23.635 37.8729 24.3804C38.2807 25.1704 38.4935 26.0464 38.4935 26.9354C38.4935 27.8244 38.2807 28.7005 37.8729 29.4904C37.4508 30.2309 36.8217 30.8322 36.0629 31.2204C35.1728 31.6515 34.1915 31.8608 33.2029 31.8304H29.5429V29.3704H32.7029C33.2111 29.3913 33.7164 29.2847 34.1729 29.0604C34.5419 28.87 34.8425 28.5694 35.0329 28.2004C35.2362 27.8087 35.336 27.3716 35.3229 26.9304C35.3361 26.4925 35.2362 26.0585 35.0329 25.6704C34.8408 25.3051 34.5404 25.0082 34.1729 24.8204C33.71 24.6056 33.203 24.5028 32.6929 24.5204H30.6129V36.5504H27.5429ZM40.5429 36.5504V22.0004H46.3629C47.28 21.9712 48.193 22.1348 49.0429 22.4804C49.6973 22.7533 50.2571 23.2123 50.6529 23.8004C51.0183 24.3769 51.2061 25.0481 51.1929 25.7304C51.2061 26.2509 51.0892 26.7665 50.8529 27.2304C50.6247 27.6346 50.3023 27.9777 49.9129 28.2304C49.5035 28.5071 49.0455 28.7039 48.5629 28.8104V28.9504C49.1148 28.9694 49.6524 29.1314 50.1229 29.4204C50.6163 29.7156 51.026 30.1322 51.3129 30.6304C51.6239 31.1964 51.7792 31.8348 51.7629 32.4804C51.7848 33.2227 51.5803 33.9542 51.1766 34.5775C50.773 35.2009 50.1892 35.6867 49.5029 35.9704C48.6364 36.3473 47.6974 36.5283 46.7529 36.5004L40.5429 36.5504ZM43.6129 34.0404H46.1229C46.7832 34.0879 47.4407 33.9156 47.9929 33.5504C48.1834 33.3866 48.3345 33.182 48.4349 32.9517C48.5353 32.7214 48.5825 32.4715 48.5729 32.2204C48.5828 31.8462 48.4819 31.4775 48.2829 31.1604C48.0803 30.844 47.7927 30.591 47.4529 30.4304C47.0546 30.249 46.6205 30.1602 46.1829 30.1704H43.6029L43.6129 34.0404ZM43.6129 28.0404H45.8929C46.281 28.0489 46.6664 27.9738 47.0229 27.8204C47.3378 27.6844 47.608 27.4626 47.8029 27.1804C48.003 26.8862 48.1046 26.5361 48.0929 26.1804C48.0995 25.9405 48.0527 25.7021 47.9558 25.4824C47.859 25.2628 47.7145 25.0674 47.5329 24.9104C47.0817 24.5646 46.5203 24.394 45.9529 24.4304H43.6129V28.0404ZM53.7629 21.9504H56.8329V31.1504H56.9529L63.2429 22.0004H65.9329V36.5504H62.8529V27.4004H62.7529L56.3729 36.5504H53.7129L53.7629 21.9504ZM81.3029 27.0504H78.1929C78.1449 26.6717 78.0262 26.3053 77.8429 25.9704C77.6708 25.6619 77.4437 25.3874 77.1729 25.1604C76.8885 24.9362 76.5669 24.7636 76.2229 24.6504C75.8217 24.5469 75.4056 24.5131 74.9929 24.5504C74.2843 24.5253 73.5854 24.721 72.9929 25.1104C72.4098 25.511 71.9577 26.0744 71.6929 26.7304C71.3632 27.546 71.2066 28.4211 71.2329 29.3004C71.2051 30.1928 71.3617 31.0813 71.6929 31.9104C71.9622 32.5613 72.418 33.118 73.0029 33.5104C73.5825 33.8771 74.2572 34.065 74.9429 34.0504C75.3285 34.0506 75.7122 33.9967 76.0829 33.8904C76.4432 33.794 76.7823 33.6312 77.0829 33.4104C77.3553 33.1981 77.5859 32.937 77.7629 32.6404C77.9457 32.3312 78.0742 31.993 78.1429 31.6404H81.2529C81.171 32.3147 80.9677 32.9686 80.6529 33.5704C80.3265 34.197 79.8895 34.7594 79.3629 35.2304C78.8037 35.7297 78.1558 36.1198 77.4529 36.3804C76.6486 36.6711 75.7981 36.8134 74.9429 36.8004C73.7252 36.8231 72.5235 36.5192 71.4629 35.9204C70.432 35.3155 69.5931 34.4316 69.0429 33.3704C68.4332 32.1269 68.1314 30.755 68.1629 29.3704C68.1288 27.9833 68.4379 26.6092 69.0629 25.3704C69.6086 24.3054 70.453 23.4226 71.4929 22.8304C72.5436 22.2341 73.7349 21.9302 74.9429 21.9504C75.7367 21.9401 76.5269 22.0583 77.2829 22.3004C77.9827 22.5111 78.6372 22.8502 79.2129 23.3004C79.7704 23.7556 80.2326 24.3163 80.5729 24.9504C80.9268 25.6205 81.1572 26.3487 81.2529 27.1004L81.3029 27.0504Z" fill="#53BFA6"/>
</svg>
