<svg width="22" height="22" viewBox="0 0 22 22" fill="none" xmlns="http://www.w3.org/2000/svg">
<g clip-path="url(#clip0_220_679)">
<path d="M3.59039 9.43688C3.52045 9.50816 3.43701 9.56477 3.34493 9.60342C3.25286 9.64207 3.154 9.66198 3.05414 9.66198C2.95429 9.66198 2.85543 9.64207 2.76335 9.60342C2.67128 9.56477 2.58783 9.50816 2.51789 9.43688C2.37554 9.29206 2.29577 9.09711 2.29577 8.89403C2.29577 8.69096 2.37554 8.49601 2.51789 8.35118L9.15199 1.64998C10.648 0.488381 12.1528 -0.0693186 13.651 0.00658139C15.5386 0.103381 17.0082 0.822781 18.2556 2.00308C19.5272 3.20648 20.35 4.92358 20.35 7.00478C20.35 8.60198 19.8858 10.0078 18.9057 11.2552L9.55239 20.8912C8.60639 21.6667 7.55479 22.0418 6.42839 21.9967C4.99839 21.9373 3.93469 21.4753 3.14379 20.6932C2.21759 19.7791 1.64999 18.656 1.64999 17.1457C1.64999 15.9445 2.06469 14.8357 2.92049 13.7951L11.1529 5.38998C11.8129 4.68598 12.4586 4.26798 13.1186 4.16678C13.5591 4.09778 14.0098 4.13737 14.4315 4.2821C14.8533 4.42683 15.2333 4.67233 15.5386 4.99728C16.1238 5.61658 16.3746 6.38878 16.2866 7.26768C16.2261 7.86718 15.9808 8.41938 15.5298 8.94848L7.96179 16.7013C7.89231 16.7728 7.80928 16.8298 7.71755 16.8689C7.62581 16.908 7.5272 16.9285 7.42748 16.9291C7.32775 16.9297 7.2289 16.9105 7.13669 16.8725C7.04448 16.8345 6.96075 16.7786 6.89039 16.7079C6.74716 16.5639 6.6662 16.3695 6.66496 16.1664C6.66373 15.9633 6.74232 15.7679 6.88379 15.6222L14.4155 7.90898C14.6355 7.65048 14.751 7.38978 14.7785 7.11258C14.8225 6.67258 14.7169 6.34808 14.443 6.05878C14.3045 5.91078 14.1317 5.79921 13.9398 5.73397C13.748 5.66873 13.543 5.65184 13.343 5.68478C13.0757 5.72548 12.7017 5.96858 12.2408 6.45918L4.04249 14.8269C3.45179 15.5474 3.16579 16.3119 3.16579 17.1468C3.16579 18.1962 3.54529 18.9475 4.20199 19.5954C4.72449 20.1124 5.43399 20.4204 6.48999 20.4644C7.23799 20.4941 7.93099 20.2466 8.53379 19.7582L17.7705 10.2432C18.48 9.33348 18.8342 8.26318 18.8342 7.00588C18.8342 5.37568 18.1995 4.05348 17.2194 3.12508C16.2184 2.17688 15.0744 1.61808 13.5751 1.54108C12.4663 1.48388 11.3036 1.91508 10.1464 2.80168L3.59039 9.43688Z" fill="#B1B1B1"/>
</g>
<defs>
<clipPath id="clip0_220_679">
<rect width="22" height="22" fill="white"/>
</clipPath>
</defs>
</svg>
