<svg width="36" height="36" viewBox="0 0 36 36" fill="none" xmlns="http://www.w3.org/2000/svg">
<circle cx="18" cy="18" r="18" fill="#DDDDDD"/>
<path d="M25.3993 8.07899C26.393 7.70217 27.3476 8.73816 27.0004 9.81661L21.2054 27.7872C20.8288 28.9527 19.3324 29.0185 18.8708 27.8901L16.0745 21.0628L20.0102 16.7904C20.1398 16.6395 20.2103 16.4399 20.207 16.2337C20.2036 16.0274 20.1266 15.8306 19.9922 15.6848C19.8578 15.5389 19.6765 15.4554 19.4865 15.4517C19.2964 15.4481 19.1125 15.5246 18.9735 15.6653L15.0368 19.9366L8.74588 16.9019C7.7062 16.3998 7.76782 14.7768 8.84075 14.3682L25.3993 8.07899Z" fill="#4950CA"/>
</svg>
