<svg width="45" height="45" viewBox="0 0 45 45" fill="none" xmlns="http://www.w3.org/2000/svg">
<circle cx="22.5" cy="22.5" r="22.5" fill="#D9D9D9"/>
<path d="M23 13C23.9889 13 24.9556 13.2932 25.7779 13.8427C26.6001 14.3921 27.241 15.173 27.6194 16.0866C27.9978 17.0002 28.0969 18.0055 27.9039 18.9755C27.711 19.9454 27.2348 20.8363 26.5355 21.5355C25.8363 22.2348 24.9454 22.711 23.9755 22.9039C23.0055 23.0969 22.0002 22.9978 21.0866 22.6194C20.173 22.241 19.3921 21.6001 18.8427 20.7779C18.2932 19.9556 18 18.9889 18 18L18.005 17.783C18.0609 16.4958 18.6116 15.2798 19.5422 14.3887C20.4728 13.4975 21.7115 13.0001 23 13ZM25 25C26.3261 25 27.5979 25.5268 28.5355 26.4645C29.4732 27.4021 30 28.6739 30 30V31C30 31.5304 29.7893 32.0391 29.4142 32.4142C29.0391 32.7893 28.5304 33 28 33H18C17.4696 33 16.9609 32.7893 16.5858 32.4142C16.2107 32.0391 16 31.5304 16 31V30C16 28.6739 16.5268 27.4021 17.4645 26.4645C18.4021 25.5268 19.6739 25 21 25H25Z" fill="#B0B0B0"/>
</svg>
