<svg width="800" height="800" viewBox="0 0 800 800" fill="none" xmlns="http://www.w3.org/2000/svg">
<path d="M708.334 400C708.334 570.286 570.287 708.333 400 708.333V758.333C597.904 758.333 758.334 597.903 758.334 400H708.334ZM400 708.333C229.713 708.333 91.667 570.286 91.667 400H41.667C41.667 597.903 202.098 758.333 400 758.333V708.333ZM91.667 400C91.667 229.712 229.713 91.6665 400 91.6665V41.6665C202.098 41.6665 41.667 202.098 41.667 400H91.667ZM516.667 475C410.814 475 325 389.186 325 283.333H275C275 416.803 383.197 525 516.667 525V475ZM680.844 382.3C647.24 437.91 586.274 475 516.667 475V525C604.497 525 681.357 478.13 723.64 408.157L680.844 382.3ZM325 283.333C325 213.727 362.09 152.76 417.7 119.156L391.844 76.3615C321.87 118.643 275 195.503 275 283.333H325ZM400 91.6665C397.05 91.6665 393.59 90.3358 391.08 87.7225C388.954 85.5088 388.46 83.4145 388.344 82.5675C388.204 81.5288 388.274 78.5188 391.844 76.3615L417.7 119.156C434.474 109.022 439.867 90.4658 437.894 75.8755C435.847 60.7085 423.887 41.6665 400 41.6665V91.6665ZM723.64 408.157C721.48 411.727 718.47 411.796 717.434 411.656C716.587 411.54 714.49 411.046 712.277 408.92C709.664 406.41 708.334 402.95 708.334 400H758.334C758.334 376.113 739.29 364.153 724.124 362.106C709.534 360.133 690.977 365.526 680.844 382.3L723.64 408.157Z" fill="#0028B1"/>
</svg>
