<svg width="10" height="7" viewBox="0 0 10 7" fill="none" xmlns="http://www.w3.org/2000/svg">
<path d="M9.7643 0.726977C9.62365 0.586374 9.43292 0.507387 9.23405 0.507387C9.03517 0.507387 8.84444 0.586374 8.7038 0.726977L4.9913 4.43948L1.2788 0.726977C1.13735 0.590359 0.947893 0.514763 0.751245 0.516472C0.554598 0.518181 0.366488 0.597057 0.227432 0.736113C0.0883762 0.875169 0.00950033 1.06328 0.00779152 1.25993C0.0060827 1.45657 0.0816785 1.64603 0.218297 1.78748L4.46105 6.03023C4.60169 6.17083 4.79242 6.24982 4.9913 6.24982C5.19017 6.24982 5.3809 6.17083 5.52155 6.03023L9.7643 1.78748C9.9049 1.64683 9.98389 1.4561 9.98389 1.25723C9.98389 1.05835 9.9049 0.867623 9.7643 0.726977Z" fill="black"/>
</svg>
