<svg width="21" height="20" viewBox="0 0 21 20" fill="none" xmlns="http://www.w3.org/2000/svg">
<rect x="1.25" y="0.75" width="18.5" height="18.5" rx="9.25" stroke="#1B632B" stroke-width="1.5"/>
<path d="M13.3088 6.96355C13.4496 6.82944 13.6371 6.75529 13.8316 6.75677C14.0261 6.75824 14.2124 6.83521 14.3512 6.97144C14.49 7.10766 14.5705 7.29249 14.5757 7.48692C14.5808 7.68135 14.5102 7.87017 14.3788 8.01355L10.3888 13.0035C10.3202 13.0774 10.2374 13.1367 10.1453 13.1779C10.0533 13.2191 9.95385 13.2413 9.85303 13.2431C9.75221 13.245 9.65205 13.2265 9.55854 13.1888C9.46502 13.1511 9.38008 13.0949 9.30878 13.0235L6.66278 10.3775C6.58909 10.3089 6.52999 10.2261 6.489 10.1341C6.44801 10.0421 6.42597 9.94277 6.42419 9.84207C6.42241 9.74137 6.44094 9.64134 6.47866 9.54795C6.51638 9.45456 6.57252 9.36973 6.64374 9.29851C6.71496 9.22729 6.79979 9.17115 6.89318 9.13342C6.98657 9.0957 7.0866 9.07718 7.1873 9.07896C7.28801 9.08073 7.38732 9.10277 7.47932 9.14377C7.57132 9.18476 7.65412 9.24386 7.72278 9.31755L9.81678 11.4105L13.2898 6.98555L13.3088 6.96355Z" fill="#1B632B"/>
</svg>
