<svg width="23" height="22" viewBox="0 0 23 22" fill="none" xmlns="http://www.w3.org/2000/svg">
<path d="M11.5 13.4342L8.95519 11L11.5 8.56583L14.0448 11L11.5 13.4342ZM8.79614 6.70491L6.64323 4.64682L11.5 0L16.3568 4.64561L14.2039 6.70491L11.5 4.11861L8.79614 6.70491ZM4.85677 15.6456L0 11L4.85677 6.35439L7.00841 8.4137L4.30582 11L7.00968 13.5863L4.85677 15.6456ZM18.1432 15.6456L15.9903 13.5863L18.6942 11L15.9903 8.4137L18.1432 6.35439L23 11L18.1432 15.6456ZM11.5 22L6.64323 17.3544L8.79614 15.2951L11.5 17.8814L14.2039 15.2951L16.3568 17.3544L11.5 22Z" fill="#4950CA"/>
</svg>
