<svg width="20" height="18" viewBox="0 0 20 18" fill="none" xmlns="http://www.w3.org/2000/svg">
<path d="M15 0C16.3261 0 17.5979 0.526784 18.5355 1.46447C19.4732 2.40215 20 3.67392 20 5V13C20 14.3261 19.4732 15.5979 18.5355 16.5355C17.5979 17.4732 16.3261 18 15 18H1C0.734784 18 0.48043 17.8946 0.292893 17.7071C0.105357 17.5196 0 17.2652 0 17V5C0 3.67392 0.526784 2.40215 1.46447 1.46447C2.40215 0.526784 3.67392 0 5 0H15ZM15 2H5C4.20435 2 3.44129 2.31607 2.87868 2.87868C2.31607 3.44129 2 4.20435 2 5V16H15C15.7956 16 16.5587 15.6839 17.1213 15.1213C17.6839 14.5587 18 13.7956 18 13V5C18 4.20435 17.6839 3.44129 17.1213 2.87868C16.5587 2.31607 15.7956 2 15 2ZM7 7C7.26522 7 7.51957 7.10536 7.70711 7.29289C7.89464 7.48043 8 7.73478 8 8V10C8 10.2652 7.89464 10.5196 7.70711 10.7071C7.51957 10.8946 7.26522 11 7 11C6.73478 11 6.48043 10.8946 6.29289 10.7071C6.10536 10.5196 6 10.2652 6 10V8C6 7.73478 6.10536 7.48043 6.29289 7.29289C6.48043 7.10536 6.73478 7 7 7ZM13 7C13.2449 7.00003 13.4813 7.08996 13.6644 7.25272C13.8474 7.41547 13.9643 7.63975 13.993 7.883L14 8V10C13.9997 10.2549 13.9021 10.5 13.7272 10.6854C13.5522 10.8707 13.313 10.9822 13.0586 10.9972C12.8042 11.0121 12.5536 10.9293 12.3582 10.7657C12.1627 10.6021 12.0371 10.3701 12.007 10.117L12 10V8C12 7.73478 12.1054 7.48043 12.2929 7.29289C12.4804 7.10536 12.7348 7 13 7Z" fill="#0084FF"/>
</svg>
