<svg width="24" height="24" viewBox="0 0 24 24" fill="none" xmlns="http://www.w3.org/2000/svg">
<path d="M12.005 22.003C6.48201 22.003 2.005 17.526 2.005 12.003C2.005 6.48 6.48201 2.003 12.005 2.003C17.528 2.003 22.005 6.48 22.005 12.003C22.005 17.526 17.528 22.003 12.005 22.003ZM11.005 16.003V18.003H13.005V16.003H14.005C14.4693 16.003 14.9244 15.8737 15.3193 15.6296C15.7143 15.3855 16.0334 15.0363 16.2411 14.621C16.4487 14.2058 16.5366 13.7409 16.4949 13.2785C16.4532 12.8161 16.2836 12.3744 16.005 12.003C16.2836 11.6316 16.4532 11.1899 16.4949 10.7275C16.5366 10.2651 16.4487 9.80023 16.2411 9.38497C16.0334 8.9697 15.7143 8.62046 15.3193 8.37637C14.9244 8.13229 14.4693 8.003 14.005 8.003H13.005V6.003H11.005V8.003H8.005V16.003H11.005ZM10.005 13.003H14.005C14.1376 13.003 14.2648 13.0557 14.3586 13.1494C14.4523 13.2432 14.505 13.3704 14.505 13.503C14.505 13.6356 14.4523 13.7628 14.3586 13.8566C14.2648 13.9503 14.1376 14.003 14.005 14.003H10.005V13.003ZM10.005 10.003H14.005C14.1376 10.003 14.2648 10.0557 14.3586 10.1494C14.4523 10.2432 14.505 10.3704 14.505 10.503C14.505 10.6356 14.4523 10.7628 14.3586 10.8566C14.2648 10.9503 14.1376 11.003 14.005 11.003H10.005V10.003Z" fill="#FFAE1A"/>
</svg>
