<svg width="23" height="22" viewBox="0 0 23 22" fill="none" xmlns="http://www.w3.org/2000/svg">
<path d="M15.7 21V18.7778C15.7 17.599 15.2575 16.4686 14.4698 15.6351C13.6822 14.8016 12.6139 14.3333 11.5 14.3333H5.2C4.08609 14.3333 3.0178 14.8016 2.23015 15.6351C1.4425 16.4686 1 17.599 1 18.7778V21" stroke="#7B7B7B" stroke-width="1.5" stroke-linecap="round" stroke-linejoin="round"/>
<path d="M8.2 9.88889C10.5196 9.88889 12.4 7.89904 12.4 5.44444C12.4 2.98985 10.5196 1 8.2 1C5.8804 1 4 2.98985 4 5.44444C4 7.89904 5.8804 9.88889 8.2 9.88889Z" stroke="#7B7B7B" stroke-width="1.5" stroke-linecap="round" stroke-linejoin="round"/>
<path d="M22 21V18.7778C21.9993 17.7931 21.6896 16.8364 21.1194 16.0582C20.5493 15.2799 19.751 14.724 18.85 14.4778M15.7 1.14447C16.6034 1.38925 17.4042 1.94525 17.976 2.72482C18.5478 3.50438 18.8582 4.46317 18.8582 5.45003C18.8582 6.43688 18.5478 7.39567 17.976 8.17524C17.4042 8.9548 16.6034 9.5108 15.7 9.75558" stroke="#7B7B7B" stroke-width="1.5" stroke-linecap="round" stroke-linejoin="round"/>
</svg>
