<svg width="23" height="22" viewBox="0 0 23 22" fill="none" xmlns="http://www.w3.org/2000/svg">
<path d="M7.77435 21H3.71024C2.21306 21 1 19.8332 1 18.3932V10.7248C1.00091 10.1661 1.12593 9.61411 1.36666 9.10571C1.6074 8.59732 1.95831 8.14428 2.39588 7.77693L9.72118 1.64006C10.2144 1.22732 10.8462 1 11.5 1C12.1538 1 12.7856 1.22732 13.2788 1.64006L20.6041 7.77811C21.0415 8.14533 21.3923 8.59818 21.6331 9.10636C21.8738 9.61454 21.9989 10.1663 22 10.7248V18.3932C22 19.0843 21.7146 19.7472 21.2066 20.2361C20.6986 20.7249 20.0096 20.9997 19.291 21H15.5641V13.1807C15.5641 12.1018 14.6549 11.2262 13.5321 11.2262H9.80765C8.68477 11.2262 7.77559 12.1018 7.77559 13.1807L7.77435 21ZM7.77435 21H15.5654" stroke="#7B7B7B" stroke-width="1.5" stroke-linejoin="round"/>
</svg>
