<svg width="12" height="11" viewBox="0 0 12 11" fill="none" xmlns="http://www.w3.org/2000/svg">
<path fill-rule="evenodd" clip-rule="evenodd" d="M0.292787 0.305288C0.480314 0.117817 0.734622 0.0125018 0.999786 0.0125018C1.26495 0.0125018 1.51926 0.117817 1.70679 0.305288L5.49979 4.09829L9.29279 0.305288C9.38503 0.209778 9.49538 0.133596 9.61738 0.0811869C9.73939 0.0287779 9.87061 0.00119157 10.0034 3.77571e-05C10.1362 -0.00111606 10.2678 0.0241854 10.3907 0.0744663C10.5136 0.124747 10.6253 0.199 10.7192 0.292893C10.8131 0.386786 10.8873 0.498438 10.9376 0.621334C10.9879 0.74423 11.0132 0.87591 11.012 1.00869C11.0109 1.14147 10.9833 1.27269 10.9309 1.39469C10.8785 1.5167 10.8023 1.62704 10.7068 1.71929L6.91379 5.51229L10.7068 9.30529C10.8889 9.49389 10.9897 9.74649 10.9875 10.0087C10.9852 10.2709 10.88 10.5217 10.6946 10.7071C10.5092 10.8925 10.2584 10.9977 9.99619 11C9.73399 11.0022 9.48139 10.9014 9.29279 10.7193L5.49979 6.92629L1.70679 10.7193C1.51818 10.9014 1.26558 11.0022 1.00339 11C0.741188 10.9977 0.490376 10.8925 0.304968 10.7071C0.11956 10.5217 0.0143906 10.2709 0.0121121 10.0087C0.00983372 9.74649 0.110629 9.49389 0.292787 9.30529L4.08579 5.51229L0.292787 1.71929C0.105316 1.53176 0 1.27745 0 1.01229C0 0.747124 0.105316 0.492816 0.292787 0.305288Z" fill="black"/>
</svg>
