<svg width="11" height="19" viewBox="0 0 11 19" fill="none" xmlns="http://www.w3.org/2000/svg">
<path fill-rule="evenodd" clip-rule="evenodd" d="M0.419953 10.5265C0.151057 10.2589 0 9.89594 0 9.51754C0 9.13913 0.151057 8.77621 0.419953 8.5086L8.53397 0.435668C8.66628 0.299368 8.82455 0.190651 8.99955 0.115859C9.17454 0.041068 9.36275 0.00170046 9.5532 5.3881e-05C9.74365 -0.00159269 9.93253 0.034515 10.1088 0.106269C10.2851 0.178024 10.4452 0.283988 10.5799 0.417979C10.7146 0.551971 10.8211 0.711305 10.8932 0.886687C10.9653 1.06207 11.0016 1.24998 10.9999 1.43947C10.9983 1.62896 10.9587 1.81621 10.8836 1.99032C10.8084 2.16443 10.6991 2.3219 10.5621 2.45354L3.46217 9.51754L10.5621 16.5815C10.8234 16.8507 10.968 17.2112 10.9647 17.5853C10.9614 17.9595 10.8106 18.3174 10.5446 18.582C10.2787 18.8466 9.91896 18.9967 9.54288 18.9999C9.1668 19.0032 8.80449 18.8594 8.53397 18.5994L0.419953 10.5265Z" fill="#D9D9D9"/>
</svg>
