<svg width="13" height="13" viewBox="0 0 13 13" fill="none" xmlns="http://www.w3.org/2000/svg">
<path d="M6.5 9.75C6.68416 9.75 6.83865 9.6876 6.96345 9.5628C7.08825 9.438 7.15043 9.28373 7.15 9.1C7.14956 8.91627 7.08716 8.762 6.9628 8.6372C6.83843 8.5124 6.68416 8.45 6.5 8.45C6.31583 8.45 6.16156 8.5124 6.0372 8.6372C5.91283 8.762 5.85043 8.91627 5.85 9.1C5.84956 9.28373 5.91196 9.43821 6.0372 9.56345C6.16243 9.68868 6.3167 9.75086 6.5 9.75ZM5.85 7.15H7.15V3.25H5.85V7.15ZM6.5 13C5.60083 13 4.75583 12.8293 3.965 12.4878C3.17417 12.1463 2.48625 11.6833 1.90125 11.0987C1.31625 10.5142 0.853234 9.82626 0.512201 9.035C0.171167 8.24373 0.000434156 7.39873 8.22784e-07 6.5C-0.00043251 5.60127 0.170301 4.75627 0.512201 3.965C0.8541 3.17373 1.31712 2.48582 1.90125 1.90125C2.48538 1.31668 3.1733 0.853667 3.965 0.5122C4.7567 0.170733 5.6017 0 6.5 0C7.3983 0 8.24329 0.170733 9.03499 0.5122C9.82669 0.853667 10.5146 1.31668 11.0987 1.90125C11.6829 2.48582 12.1461 3.17373 12.4884 3.965C12.8308 4.75627 13.0013 5.60127 13 6.5C12.9987 7.39873 12.828 8.24373 12.4878 9.035C12.1476 9.82626 11.6846 10.5142 11.0987 11.0987C10.5129 11.6833 9.82496 12.1465 9.03499 12.4884C8.24503 12.8303 7.40003 13.0009 6.5 13Z" fill="#FF0505"/>
</svg>
