<svg width="13" height="11" viewBox="0 0 13 11" fill="none" xmlns="http://www.w3.org/2000/svg">
<path fill-rule="evenodd" clip-rule="evenodd" d="M11.0234 10.2788V10.2776L11.0352 10.2504L13 0.709968V0.679681C13 0.441801 12.9083 0.234208 12.7104 0.109904C12.5368 0.000744338 12.337 -0.00682739 12.1968 0.00326832C12.0663 0.0146361 11.9375 0.0400334 11.8129 0.0789861C11.7597 0.0954894 11.7073 0.114013 11.6556 0.134513L11.6471 0.137667L0.692983 4.27628L0.689707 4.27754C0.656403 4.28849 0.623806 4.30135 0.592089 4.31603C0.514184 4.34974 0.439439 4.38985 0.368683 4.43592C0.227825 4.5293 -0.0401318 4.74889 0.00507369 5.09719C0.0424173 5.38618 0.24879 5.56916 0.388337 5.66444C0.470706 5.72003 0.559263 5.76659 0.652363 5.80326L0.673328 5.81209L0.67988 5.81398L0.684466 5.81588L2.60144 6.43739C2.59489 6.55286 2.60668 6.67086 2.63878 6.78759L3.59858 10.2952C3.65101 10.4864 3.76431 10.657 3.92257 10.783C4.08082 10.909 4.27608 10.9841 4.48092 10.9977C4.68576 11.0114 4.8899 10.9629 5.06465 10.8591C5.23941 10.7553 5.37601 10.6013 5.45528 10.4189L6.95426 8.87551L9.52835 10.776L9.56504 10.7912C9.79893 10.8896 10.0171 10.9205 10.2169 10.8947C10.4167 10.8682 10.5753 10.7874 10.6945 10.6959C10.8324 10.5882 10.9424 10.451 11.0155 10.2952L11.0208 10.2845L11.0228 10.2807L11.0234 10.2788ZM3.58875 6.54655C3.57812 6.50763 3.58065 6.46646 3.59596 6.42902C3.61128 6.39158 3.63859 6.35981 3.67392 6.33833L10.1737 2.36314C10.1737 2.36314 10.5563 2.13914 10.5425 2.36314C10.5425 2.36314 10.6107 2.40226 10.4056 2.58588C10.2117 2.76066 5.77303 6.88791 5.32359 7.30563C5.2986 7.329 5.28109 7.35878 5.27315 7.39144L4.54855 10.0542L3.58875 6.54655Z" fill="#006AFF"/>
</svg>
